HIERARCHY
ROOT Hips
{
	OFFSET 0.000000 0.000000 0.000000
	CHANNELS 6 Xposition Yposition Zposition Zrotation Yrotation Xrotation 
	JOINT LHipJoint
	{
		OFFSET 0.000000 0.000000 0.000000
		CHANNELS 3 Zrotation Yrotation Xrotation
		JOINT LeftUpLeg
		{
			OFFSET 1.363060 -1.794630 0.839290
			CHANNELS 3 Zrotation Yrotation Xrotation
			JOINT LeftLeg
			{
				OFFSET 2.448110 -6.726130 0.000000
				CHANNELS 3 Zrotation Yrotation Xrotation
				JOINT LeftFoot
				{
					OFFSET 2.562200 -7.039590 0.000000
					CHANNELS 3 Zrotation Yrotation Xrotation
					JOINT LeftToeBase
					{
						OFFSET 0.157640 -0.433110 2.322550
						CHANNELS 3 Zrotation Yrotation Xrotation
						End Site
						{
							OFFSET 0.000000 0.000000 0.000000
						}
					}
				}
			}
		}
	}
	JOINT RHipJoint
	{
		OFFSET 0.000000 0.000000 0.000000
		CHANNELS 3 Zrotation Yrotation Xrotation
		JOINT RightUpLeg
		{
			OFFSET -1.305520 -1.794630 0.839290
			CHANNELS 3 Zrotation Yrotation Xrotation
			JOINT RightLeg
			{
				OFFSET -2.542530 -6.985550 0.000000
				CHANNELS 3 Zrotation Yrotation Xrotation
				JOINT RightFoot
				{
					OFFSET -2.568260 -7.056230 0.000000
					CHANNELS 3 Zrotation Yrotation Xrotation
					JOINT RightToeBase
					{
						OFFSET -0.164730 -0.452590 2.363150
						CHANNELS 3 Zrotation Yrotation Xrotation
						End Site
						{
							OFFSET 0.000000 0.000000 0.000000
						}
					}
				}
			}
		}
	}
	JOINT LowerBack
	{
		OFFSET 0.000000 0.000000 0.000000
		CHANNELS 3 Zrotation Yrotation Xrotation
		JOINT Spine
		{
			OFFSET 0.028270 2.035590 -0.193380
			CHANNELS 3 Zrotation Yrotation Xrotation
			JOINT Spine1
			{
				OFFSET 0.056720 2.048850 -0.042750
				CHANNELS 3 Zrotation Yrotation Xrotation
				JOINT Neck
				{
					OFFSET 0.000000 0.000000 0.000000
					CHANNELS 3 Zrotation Yrotation Xrotation
					JOINT Neck1
					{
						OFFSET -0.054170 1.746240 0.172020
						CHANNELS 3 Zrotation Yrotation Xrotation
						JOINT Head
						{
							OFFSET 0.104070 1.761360 -0.123970
							CHANNELS 3 Zrotation Yrotation Xrotation
							End Site
							{
								OFFSET 0.000000 0.000000 0.000000
							}
						}
					}
				}
				JOINT LeftShoulder
				{
					OFFSET 0.000000 0.000000 0.000000
					CHANNELS 3 Zrotation Yrotation Xrotation
					JOINT LeftArm
					{
						OFFSET 3.362410 1.200890 -0.311210
						CHANNELS 3 Zrotation Yrotation Xrotation
						JOINT LeftForeArm
						{
							OFFSET 4.983000 -0.000000 -0.000000
							CHANNELS 3 Zrotation Yrotation Xrotation
							JOINT LeftHand
							{
								OFFSET 3.483560 -0.000000 -0.000000
								CHANNELS 3 Zrotation Yrotation Xrotation
								JOINT LeftFingerBase
								{
									OFFSET 0.000000 0.000000 0.000000
									CHANNELS 3 Zrotation Yrotation Xrotation
									JOINT LeftHandIndex1
									{
										OFFSET 0.715260 -0.000000 -0.000000
										CHANNELS 3 Zrotation Yrotation Xrotation
										End Site
										{
											OFFSET 0.000000 0.000000 0.000000
										}
									}
								}
								JOINT LThumb
								{
									OFFSET 0.000000 0.000000 0.000000
									CHANNELS 3 Zrotation Yrotation Xrotation
									End Site
									{
										OFFSET 0.000000 0.000000 0.000000
									}
								}
							}
						}
					}
				}
				JOINT RightShoulder
				{
					OFFSET 0.000000 0.000000 0.000000
					CHANNELS 3 Zrotation Yrotation Xrotation
					JOINT RightArm
					{
						OFFSET -3.136600 1.374050 -0.404650
						CHANNELS 3 Zrotation Yrotation Xrotation
						JOINT RightForeArm
						{
							OFFSET -5.241900 -0.000000 -0.000000
							CHANNELS 3 Zrotation Yrotation Xrotation
							JOINT RightHand
							{
								OFFSET -3.444170 -0.000000 -0.000000
								CHANNELS 3 Zrotation Yrotation Xrotation
								JOINT RightFingerBase
								{
									OFFSET 0.000000 0.000000 0.000000
									CHANNELS 3 Zrotation Yrotation Xrotation
									JOINT RightHandIndex1
									{
										OFFSET -0.622530 -0.000000 -0.000000
										CHANNELS 3 Zrotation Yrotation Xrotation
										End Site
										{
											OFFSET 0.000000 0.000000 0.000000
										}
									}
								}
								JOINT RThumb
								{
									OFFSET 0.000000 0.000000 0.000000
									CHANNELS 3 Zrotation Yrotation Xrotation
									End Site
									{
										OFFSET 0.000000 0.000000 0.000000
									}
								}
							}
						}
					}
				}
			}
		}
	}
}
MOTION
Frames: 9
Frame Time: 0.008333
4.136388 17.252671 1.183688 99.320239 86.748239 97.809797 -10.003631 1.672455 -0.486647 -11.231890 16.801143 -23.553410 -1.461075 1.076547 31.387428 3.050349 19.320439 -8.945252 -0.388500 0.000000 -15.411600 10.011466 -2.647514 0.368178 6.514242 -8.698184 8.962914 1.792776 0.754213 0.638311 -1.420509 -6.027113 -7.990938 -0.202300 0.000000 -23.610400 -0.223513 -1.857510 -1.845956 -0.434388 -1.898764 -2.623695 -4.802628 -1.926374 2.616359 7.684119 -16.018404 -9.629760 -1.961424 -0.128660 -0.486796 0.000000 0.000000 0.000000 -1.279997 19.194223 0.979498 -50.249217 12.732862 -3.537091 -4.509222 -25.301702 -0.007730 -1.940191 2.234702 -0.034215 -0.189336 -0.044782 -0.000000 0.000000 0.000000 0.000000 0.000000 0.000000 0.000000 10.768834 -12.038405 -0.066990 56.625547 2.439161 -2.650197 3.388028 33.110270 0.013393 5.107483 3.814482 0.171711 0.077852 -0.078787 -0.000000 0.000000 0.000000 0.000000 0.000000 0.000000 0.000000 
4.264660 17.243152 1.194610 95.556421 86.661430 94.199038 -9.949211 1.591331 -0.438392 -11.961011 16.841606 -24.197410 -1.562238 0.938967 29.498554 3.027313 19.122698 -8.486458 -0.200000 0.000000 -15.642700 10.003301 -2.686314 0.336192 6.346920 -8.793935 9.349819 1.791163 0.757470 0.469700 -1.390425 -5.861274 -7.976326 -0.197400 -0.000000 -24.603300 -0.419262 -1.738454 -1.853607 -0.463998 -1.765364 -2.629409 -4.752604 -1.796612 2.613641 7.518770 -15.725760 -9.620186 -1.942582 -0.127243 -0.485641 0.000000 0.000000 0.000000 -1.495825 19.605567 0.967957 -50.908313 13.035635 -3.982411 -4.538904 -24.893208 -0.007834 -1.841573 2.270576 -0.032834 -0.189221 -0.045712 -0.000000 0.000000 0.000000 0.000000 0.000000 0.000000 0.000000 10.464193 -11.641531 -0.059308 56.030492 2.895126 -2.079625 3.308581 33.846434 0.013599 4.995905 3.927260 0.172917 0.076196 -0.082312 -0.000000 0.000000 0.000000 0.000000 0.000000 0.000000 0.000000 
4.393467 17.232883 1.203417 91.823569 86.586734 90.608586 -9.905940 1.514743 -0.389835 -12.651823 16.904047 -24.795124 -1.663889 0.798633 27.548298 2.992417 18.885407 -7.943386 0.015001 0.000000 -15.998700 9.983872 -2.726446 0.301871 6.203093 -8.881072 9.726656 1.793377 0.755072 0.357776 -1.359707 -5.692800 -7.955474 -0.193400 0.000000 -25.680000 -0.588375 -1.616324 -1.860284 -0.487683 -1.630624 -2.634722 -4.699467 -1.665484 2.612513 7.346836 -15.440212 -9.608002 -1.921813 -0.125711 -0.483785 0.000000 0.000000 0.000000 -1.714673 20.014949 0.955491 -51.597313 13.352786 -4.437669 -4.564988 -24.508555 -0.008006 -1.763392 2.325252 -0.032054 -0.188847 -0.046640 -0.000000 0.000000 0.000000 0.000000 0.000000 0.000000 0.000000 10.146704 -11.253861 -0.051703 55.419019 3.343207 -1.574942 3.229330 34.556977 0.013784 4.882675 4.033259 0.173624 0.074486 -0.086017 -0.000000 0.000000 0.000000 0.000000 0.000000 0.000000 0.000000 
4.522916 17.221893 1.210235 88.013664 86.522768 86.930051 -9.876129 1.442664 -0.341922 -13.302807 16.999550 -25.352570 -1.767822 0.656223 25.551526 2.941444 18.583647 -7.329684 0.247801 -0.000000 -16.495200 9.951833 -2.768653 0.265756 6.083312 -8.963088 10.094615 1.800180 0.747391 0.299085 -1.327022 -5.515229 -7.925077 -0.190400 0.000001 -26.825801 -0.731260 -1.490534 -1.866443 -0.505685 -1.493974 -2.639732 -4.644215 -1.532401 2.612941 7.170750 -15.162955 -9.593645 -1.899383 -0.124080 -0.481324 0.000000 0.000000 0.000000 -1.935660 20.421397 0.941996 -52.313519 13.689044 -4.897712 -4.587351 -24.151001 -0.008250 -1.705762 2.399982 -0.031875 -0.188228 -0.047611 -0.000000 0.000000 0.000000 0.000000 0.000000 0.000000 0.000000 9.820514 -10.876372 -0.043663 54.792633 3.785794 -1.136627 3.151151 35.234572 0.013945 4.771882 4.130515 0.173929 0.072711 -0.089866 -0.000000 0.000000 0.000000 0.000000 0.000000 0.000000 0.000000 
4.653173 17.210224 1.215259 84.054273 86.464819 83.090842 -9.860573 1.376054 -0.295007 -13.915784 17.135398 -25.875130 -1.876005 0.512777 23.523008 2.870129 18.192129 -6.654847 0.489900 0.000000 -17.176000 9.907950 -2.813151 0.227524 5.982324 -9.049709 10.453536 1.811771 0.734682 0.290010 -1.290291 -5.319414 -7.877704 -0.188800 -0.000001 -28.069299 -0.851458 -1.361416 -1.872380 -0.518932 -1.355544 -2.644741 -4.588073 -1.397476 2.613921 6.993950 -14.896189 -9.577145 -1.875834 -0.122401 -0.478218 0.000000 0.000000 0.000000 -2.159121 20.817129 0.927285 -53.053606 14.058873 -5.364980 -4.605933 -23.830631 -0.008571 -1.669890 2.494801 -0.032398 -0.187371 -0.048690 -0.000000 0.000000 0.000000 0.000000 0.000000 0.000000 0.000000 9.491702 -10.511233 -0.034145 54.151896 4.226677 -0.760159 3.074756 35.873472 0.014078 4.665740 4.215382 0.173632 0.070885 -0.093806 -0.000000 0.000000 0.000000 0.000000 0.000000 0.000000 0.000000 
4.784375 17.197979 1.218632 79.876406 86.408732 79.025420 -9.859669 1.314765 -0.248416 -14.490899 17.311109 -26.373231 -1.990263 0.369437 21.483968 2.775679 17.688420 -5.940238 0.727400 -0.000000 -17.966500 9.851568 -2.859311 0.189802 5.902877 -9.133230 10.804694 1.827809 0.718555 0.322479 -1.250984 -5.111588 -7.819241 -0.188100 -0.000000 -29.309200 -0.950965 -1.228743 -1.881900 -0.528182 -1.215134 -2.649890 -4.532582 -1.260473 2.617645 6.820954 -14.637909 -9.560999 -1.851553 -0.120667 -0.475151 0.000000 0.000000 0.000000 -2.382080 21.217848 0.911395 -53.811325 14.442855 -5.816829 -4.620579 -23.535508 -0.008938 -1.647104 2.603617 -0.033320 -0.186301 -0.049873 -0.000000 0.000000 0.000000 0.000000 0.000000 0.000000 0.000000 9.167769 -10.156199 -0.023791 53.497078 4.666274 -0.446482 3.000938 36.468002 0.014195 4.570595 4.293184 0.173335 0.068954 -0.097810 -0.000000 0.000000 0.000000 0.000000 0.000000 0.000000 0.000000 
4.916712 17.185262 1.220654 75.484822 86.346553 74.739389 -9.871479 1.260017 -0.201409 -15.032445 17.523497 -26.851796 -2.112155 0.227518 19.452101 2.655876 17.054846 -5.197096 0.949700 -0.000001 -18.881500 9.785784 -2.906293 0.152330 5.836594 -9.221780 11.147177 1.847357 0.699362 0.392607 -1.207990 -4.887791 -7.743210 -0.188700 0.000000 -30.579500 -1.035765 -1.093701 -1.896091 -0.535015 -1.073588 -2.655551 -4.479234 -1.122214 2.623301 6.656074 -14.390150 -9.545677 -1.827342 -0.118941 -0.472205 0.000000 0.000000 0.000000 -2.604150 21.616978 0.894125 -54.581907 14.853171 -6.255837 -4.631431 -23.272613 -0.009339 -1.636911 2.722173 -0.034744 -0.185027 -0.051213 -0.000000 0.000000 0.000000 0.000000 0.000000 0.000000 0.000000 8.856973 -9.813492 -0.011689 52.828399 5.108849 -0.188034 2.930144 37.013965 0.014296 4.486275 4.361876 0.173035 0.066950 -0.101825 -0.000000 0.000000 0.000000 0.000000 0.000000 0.000000 0.000000 
5.050291 17.172179 1.221556 70.895697 86.272448 70.251851 -9.894036 1.211632 -0.153312 -15.541531 17.766586 -27.320480 -2.242761 0.088577 17.454671 2.510177 16.277405 -4.449002 1.142001 -0.000000 -19.854400 9.712088 -2.952953 0.116863 5.782512 -9.310018 11.481869 1.869247 0.678211 0.494200 -1.162820 -4.655823 -7.652064 -0.190400 -0.000000 -31.843100 -1.108835 -0.956852 -1.917501 -0.540445 -0.931382 -2.661851 -4.429343 -0.983141 2.632150 6.503114 -14.151950 -9.532968 -1.803647 -0.117234 -0.469862 0.000000 0.000000 0.000000 -2.823026 22.023002 0.875503 -55.360190 15.278168 -6.669131 -4.638508 -23.033009 -0.009738 -1.631933 2.841781 -0.036168 -0.183569 -0.052701 -0.000000 0.000000 0.000000 0.000000 0.000000 0.000000 0.000000 8.565782 -9.482264 0.001873 52.147474 5.555343 0.017620 2.862762 37.507580 0.014385 4.413683 4.425181 0.172833 0.064870 -0.105826 -0.000000 0.000000 0.000000 0.000000 0.000000 0.000000 0.000000 
5.185196 17.158911 1.221774 66.298333 86.177201 65.752877 -9.920003 1.170837 -0.098325 -16.023461 17.998978 -27.759912 -2.379876 -0.048670 15.483690 2.343399 15.382058 -3.688669 1.304201 0.000000 -20.970400 9.640269 -2.997699 0.079630 5.718040 -9.419115 11.802259 1.891153 0.653856 0.630323 -1.112963 -4.405086 -7.534544 -0.193800 0.000000 -33.199299 -1.182155 -0.822041 -1.947392 -0.547440 -0.791613 -2.669547 -4.384617 -0.846332 2.641589 6.367150 -13.926425 -9.521930 -1.781907 -0.115685 -0.467797 0.000000 0.000000 0.000000 -3.039687 22.416049 0.855461 -56.141922 15.745533 -7.080476 -4.642586 -22.832050 -0.010131 -1.637676 2.959182 -0.037892 -0.181932 -0.054395 -0.000000 0.000000 0.000000 0.000000 0.000000 0.000000 0.000000 8.305330 -9.166727 0.018248 51.455087 6.010273 0.179848 2.798975 37.947450 0.014457 4.348711 4.478274 0.172433 0.062807 -0.109740 -0.000000 0.000000 0.000000 0.000000 0.000000 0.000000 0.000000 
